<?xml version="1.0" encoding="utf-8" standalone="no"?><!DOCTYPE svg PUBLIC "-//W3C//DTD SVG 1.1//EN" "http://www.w3.org/Graphics/SVG/1.1/DTD/svg11.dtd"><svg width="1250px" height="1376px" version="1.1" xmlns="http://www.w3.org/2000/svg"><desc /><defs><linearGradient id="fs1" x1="0.499996274709702px" y1="-0.500002086162567px" x2="1.49999594688416px" y2="0.499997437000275px"><stop offset="0%" stop-color="#FFFFFF" stop-opacity="1" /><stop offset="100%" stop-color="#EBEBEB" stop-opacity="1" /></linearGradient><linearGradient id="fs2" x1="0.999996244907379px" y1="-2.81082952824363E-06px" x2="0.999995887279511px" y2="0.999996781349182px"><stop offset="0%" stop-color="#FFFFFF" stop-opacity="0.5490196" /><stop offset="100%" stop-color="#FFFFFF" stop-opacity="0.1568628" /></linearGradient><linearGradient id="fs3" x1="0.499996840953827px" y1="-0.500001430511475px" x2="1.49999642372131px" y2="0.499998241662979px"><stop offset="0%" stop-color="#FFFFFF" stop-opacity="1" /><stop offset="100%" stop-color="#EBEBEB" stop-opacity="1" /></linearGradient><linearGradient id="fs4" x1="0.999997615814209px" y1="-8.71930808443722E-07px" x2="0.99999725818634px" y2="0.999998986721039px"><stop offset="0%" stop-color="#FFFFFF" stop-opacity="0.5490196" /><stop offset="100%" stop-color="#FFFFFF" stop-opacity="0.1568628" /></linearGradient><linearGradient id="fs5" x1="0.499997764825821px" y1="-0.500001192092896px" x2="1.49999737739563px" y2="0.499998271465302px"><stop offset="0%" stop-color="#FFFFFF" stop-opacity="1" /><stop offset="100%" stop-color="#EBEBEB" stop-opacity="1" /></linearGradient><linearGradient id="fs6" x1="0.999998867511749px" y1="-5.89711646625801E-07px" x2="0.999998509883881px" y2="0.999999403953552px"><stop offset="0%" stop-color="#FFFFFF" stop-opacity="0.5490196" /><stop offset="100%" stop-color="#FFFFFF" stop-opacity="0.1568628" /></linearGradient><linearGradient id="fs7" x1="0.49999538064003px" y1="-0.500001072883606px" x2="1.49999511241913px" y2="0.499998688697815px"><stop offset="0%" stop-color="#FFFFFF" stop-opacity="1" /><stop offset="100%" stop-color="#EBEBEB" stop-opacity="1" /></linearGradient><linearGradient id="fs8" x1="0.999997973442078px" y1="-4.48787915274806E-07px" x2="0.99999737739563px" y2="0.999999105930328px"><stop offset="0%" stop-color="#FFFFFF" stop-opacity="0.5490196" /><stop offset="100%" stop-color="#FFFFFF" stop-opacity="0.1568628" /></linearGradient><linearGradient id="fs9" x1="0.499992400407791px" y1="-0.500005304813385px" x2="1.49999213218689px" y2="0.499993562698364px"><stop offset="0%" stop-color="#FFFFFF" stop-opacity="1" /><stop offset="100%" stop-color="#EBEBEB" stop-opacity="1" /></linearGradient><linearGradient id="fs10" x1="0.999991238117218px" y1="-1.25200322145247E-05px" x2="0.99999064207077px" y2="0.999987483024597px"><stop offset="0%" stop-color="#FFFFFF" stop-opacity="0.5490196" /><stop offset="100%" stop-color="#FFFFFF" stop-opacity="0.1568628" /></linearGradient><linearGradient id="fs11" x1="0.499992042779922px" y1="-0.500006854534149px" x2="1.49999153614044px" y2="0.499991595745087px"><stop offset="0%" stop-color="#FFFFFF" stop-opacity="1" /><stop offset="100%" stop-color="#EBEBEB" stop-opacity="1" /></linearGradient><linearGradient id="fs12" x1="0.999994039535522px" y1="-2.87224265775876E-05px" x2="0.999994039535522px" y2="0.999971270561218px"><stop offset="0%" stop-color="#FFFFFF" stop-opacity="0.5490196" /><stop offset="100%" stop-color="#FFFFFF" stop-opacity="0.1568628" /></linearGradient><linearGradient id="fs13" x1="0.499993115663528px" y1="-0.500001847743988px" x2="1.49999272823334px" y2="0.499997407197952px"><stop offset="0%" stop-color="#FFFFFF" stop-opacity="1" /><stop offset="100%" stop-color="#EBEBEB" stop-opacity="1" /></linearGradient><linearGradient id="fs14" x1="0.999997675418854px" y1="-1.27156579310395E-06px" x2="0.99999737739563px" y2="0.99999874830246px"><stop offset="0%" stop-color="#FFFFFF" stop-opacity="0.5490196" /><stop offset="100%" stop-color="#FFFFFF" stop-opacity="0.1568628" /></linearGradient><linearGradient id="fs15" x1="0.499993771314621px" y1="-0.500003516674042px" x2="1.49999356269836px" y2="0.499995887279511px"><stop offset="0%" stop-color="#FFFFFF" stop-opacity="1" /><stop offset="100%" stop-color="#EBEBEB" stop-opacity="1" /></linearGradient><linearGradient id="fs16" x1="0.999997496604919px" y1="-6.00345811108127E-06px" x2="0.999997496604919px" y2="0.999993979930878px"><stop offset="0%" stop-color="#FFFFFF" stop-opacity="0.5490196" /><stop offset="100%" stop-color="#FFFFFF" stop-opacity="0.1568628" /></linearGradient><linearGradient id="fs17" x1="0.499999284744263px" y1="-0.500000357627869px" x2="1.49999892711639px" y2="0.499999314546585px"><stop offset="0%" stop-color="#FFFFFF" stop-opacity="1" /><stop offset="100%" stop-color="#EBEBEB" stop-opacity="1" /></linearGradient><linearGradient id="fs18" x1="0.999999284744263px" y1="-8.63705054143793E-07px" x2="0.999999284744263px" y2="0.999999165534973px"><stop offset="0%" stop-color="#FFFFFF" stop-opacity="0.5490196" /><stop offset="100%" stop-color="#FFFFFF" stop-opacity="0.1568628" /></linearGradient><linearGradient id="fs19" x1="0.499993056058884px" y1="-0.500006854534149px" x2="1.49999272823334px" y2="0.499992191791534px"><stop offset="0%" stop-color="#FFFFFF" stop-opacity="1" /><stop offset="100%" stop-color="#EBEBEB" stop-opacity="1" /></linearGradient><linearGradient id="fs20" x1="0.999991297721863px" y1="-1.01725263448316E-05px" x2="0.99999076128006px" y2="0.999989032745361px"><stop offset="0%" stop-color="#FFFFFF" stop-opacity="0.5490196" /><stop offset="100%" stop-color="#FFFFFF" stop-opacity="0.1568628" /></linearGradient><clipPath id="cp1"><path d="M 908 839.25 L 1235 839.25  1235 1361.25  908 1361.25 z " /></clipPath><clipPath id="cp2" clip-rule="evenodd"><path d="M -30000 -30000 L 30000 -30000  30000 30000  -30000 30000 z M 908 839.25 L 1235 839.25  1235 1361.25  908 1361.25 z " /></clipPath><clipPath id="cp3"><path d="M 906 837 L 1235 837  1235 1361  906 1361 z " /></clipPath><clipPath id="cp4"><path d="M 916.5 399.5 L 1226.5 399.5  1226.5 819.5  916.5 819.5 z " /></clipPath><clipPath id="cp5" clip-rule="evenodd"><path d="M -30000 -30000 L 30000 -30000  30000 30000  -30000 30000 z M 916.5 399.5 L 1226.5 399.5  1226.5 819.5  916.5 819.5 z " /></clipPath><clipPath id="cp6"><path d="M 915 398 L 1227 398  1227 820  915 820 z " /></clipPath><clipPath id="cp7"><path d="M 908 5 L 1236 5  1236 360  908 360 z " /></clipPath><clipPath id="cp8" clip-rule="evenodd"><path d="M -30000 -30000 L 30000 -30000  30000 30000  -30000 30000 z M 908 5 L 1236 5  1236 360  908 360 z " /></clipPath><clipPath id="cp9"><path d="M 906 3 L 1236 3  1236 360  906 360 z " /></clipPath><clipPath id="cp10"><path d="M 625 25 L 836 25  836 141  625 141 z " /></clipPath><clipPath id="cp11" clip-rule="evenodd"><path d="M -30000 -30000 L 30000 -30000  30000 30000  -30000 30000 z M 625 25 L 836 25  836 141  625 141 z " /></clipPath><clipPath id="cp12"><path d="M 623 23 L 836 23  836 141  623 141 z " /></clipPath><clipPath id="cp13"><path d="M 587.5 577.75 L 796.5 577.75  796.5 710.75  587.5 710.75 z " /></clipPath><clipPath id="cp14" clip-rule="evenodd"><path d="M -30000 -30000 L 30000 -30000  30000 30000  -30000 30000 z M 587.5 577.75 L 796.5 577.75  796.5 710.75  587.5 710.75 z " /></clipPath><clipPath id="cp15"><path d="M 585 576 L 796 576  796 711  585 711 z " /></clipPath><clipPath id="cp16"><path d="M 600 1012.75 L 845 1012.75  845 1128.75  600 1128.75 z " /></clipPath><clipPath id="cp17" clip-rule="evenodd"><path d="M -30000 -30000 L 30000 -30000  30000 30000  -30000 30000 z M 600 1012.75 L 845 1012.75  845 1128.75  600 1128.75 z " /></clipPath><clipPath id="cp18"><path d="M 598 1011 L 845 1011  845 1129  598 1129 z " /></clipPath><clipPath id="cp19"><path d="M 625 181.5 L 811 181.5  811 263.5  625 263.5 z " /></clipPath><clipPath id="cp20" clip-rule="evenodd"><path d="M -30000 -30000 L 30000 -30000  30000 30000  -30000 30000 z M 625 181.5 L 811 181.5  811 263.5  625 263.5 z " /></clipPath><clipPath id="cp21"><path d="M 623 180 L 811 180  811 264  623 264 z " /></clipPath><clipPath id="cp22"><path d="M 625 437.5 L 870 437.5  870 541.5  625 541.5 z " /></clipPath><clipPath id="cp23" clip-rule="evenodd"><path d="M -30000 -30000 L 30000 -30000  30000 30000  -30000 30000 z M 625 437.5 L 870 437.5  870 541.5  625 541.5 z " /></clipPath><clipPath id="cp24"><path d="M 623 436 L 870 436  870 542  623 542 z " /></clipPath><clipPath id="cp25"><path d="M 5 420 L 344 420  344 784  5 784 z " /></clipPath><clipPath id="cp26" clip-rule="evenodd"><path d="M -30000 -30000 L 30000 -30000  30000 30000  -30000 30000 z M 5 420 L 344 420  344 784  5 784 z " /></clipPath><clipPath id="cp27"><path d="M 3 418 L 344 418  344 784  3 784 z " /></clipPath><clipPath id="cp28"><path d="M 600 747 L 811 747  811 880  600 880 z " /></clipPath><clipPath id="cp29" clip-rule="evenodd"><path d="M -30000 -30000 L 30000 -30000  30000 30000  -30000 30000 z M 600 747 L 811 747  811 880  600 880 z " /></clipPath><clipPath id="cp30"><path d="M 598 745 L 811 745  811 880  598 880 z " /></clipPath></defs><g transform="matrix(1 0 0 1 0 0)"><g clip-path="url(#cp1)"><rect x="907px" y="838px" width="329px" height="524px" fill="rgba(0,0,0,0.196)" /></g><g clip-path="url(#cp2)"><path fill="none" d="M 908 839.25 L 1235 839.25  1235 1361.25  908 1361.25 z " stroke="rgba(0,0,0,0.051)" stroke-width="8px" stroke-dashoffset="0" stroke-linejoin="round" stroke-miterlimit="10" /><path fill="none" d="M 908 839.25 L 1235 839.25  1235 1361.25  908 1361.25 z " stroke="rgba(0,0,0,0.051)" stroke-width="6px" stroke-dashoffset="0" stroke-linejoin="round" stroke-miterlimit="10" /><path fill="none" d="M 908 839.25 L 1235 839.25  1235 1361.25  908 1361.25 z " stroke="rgba(0,0,0,0.051)" stroke-width="4px" stroke-dashoffset="0" stroke-linejoin="round" stroke-miterlimit="10" /><path fill="none" d="M 908 839.25 L 1235 839.25  1235 1361.25  908 1361.25 z " stroke="rgba(0,0,0,0.051)" stroke-width="2px" stroke-dashoffset="0" stroke-linejoin="round" stroke-miterlimit="10" /></g><rect x="907px" y="838px" width="327px" height="522px" fill="url(#fs1)" /><path d="M 1234 1012.25 C 1070.5 1012.25  907 1012.25  907 1142.75 L 907 838.25  1234 838.25  1234 1012.25 z " fill="url(#fs2)" /><rect x="907px" y="838px" width="327px" height="522px" fill="none" stroke="#000000" stroke-width="1px" stroke-dashoffset="0" stroke-linejoin="round" stroke-miterlimit="10" /><g clip-path="url(#cp3)"><text x="1013px" y="855.556274414063px" font-family="Verdana" font-size="9.599999pt" font-weight="bold" fill="#000000">MotorController</text><line x1="907px" y1="862px" x2="1234px" y2="862px" stroke="#000000" stroke-width="1px" stroke-dashoffset="0" stroke-linejoin="round" stroke-miterlimit="10" /><text x="910px" y="882.000610351563px" font-family="Verdana" font-size="8.639999pt" fill="#000000">- motor: Motor</text><text x="910px" y="899.000610351563px" font-family="Verdana" font-size="8.639999pt" fill="#000000">- uartptr: UART*</text><text x="910px" y="916.000610351563px" font-family="Verdana" font-size="8.639999pt" fill="#000000">- wascontroller: WashingMachineController *</text><text x="910px" y="933.000610351563px" font-family="Verdana" font-size="8.639999pt" fill="#000000">- response_flag: RTOS::flag</text><text x="910px" y="950.000610351563px" font-family="Verdana" font-size="8.639999pt" fill="#000000">- new_job_flag: RTOS::flag</text><text x="910px" y="967.000610351563px" font-family="Verdana" font-size="8.639999pt" fill="#000000">- motor_job_pool: RTOS::pool&lt; int &gt;</text><text x="910px" y="984.000610351563px" font-family="Verdana" font-size="8.639999pt" fill="#000000">- motor_time_pool: RTOS::pool&lt; int &gt;</text><text x="910px" y="1001.00061035156px" font-family="Verdana" font-size="8.639999pt" fill="#000000">- motor_job_mutex: RTOS::mutex</text><text x="910px" y="1018.00061035156px" font-family="Verdana" font-size="8.639999pt" fill="#000000">- motor_time_mutex: RTOS::mutex</text><text x="910px" y="1035.00061035156px" font-family="Verdana" font-size="8.639999pt" fill="#000000">- response_mutex: RTOS::mutex</text><text x="910px" y="1052.00061035156px" font-family="Verdana" font-size="8.639999pt" fill="#000000">- rotate_timer: RTOS::timer</text><text x="910px" y="1069.00061035156px" font-family="Verdana" font-size="8.639999pt" fill="#000000">- taak: int</text><line x1="907px" y1="1076px" x2="1234px" y2="1076px" stroke="#000000" stroke-width="1px" stroke-dashoffset="0" stroke-linejoin="round" stroke-miterlimit="10" /><text x="910px" y="1093.00061035156px" font-family="Verdana" font-size="8.639999pt" fill="#000000">- stopMotor (): void</text><text x="910px" y="1110.00061035156px" font-family="Verdana" font-size="8.639999pt" fill="#000000">- rotateRight (int speed): void</text><text x="910px" y="1127.00061035156px" font-family="Verdana" font-size="8.639999pt" fill="#000000">- rotateLeft (int speed): void</text><text x="910px" y="1144.00061035156px" font-family="Verdana" font-size="8.639999pt" fill="#000000">- normalMotorJob (int time): void</text><text x="910px" y="1161.00061035156px" font-family="Verdana" font-size="8.639999pt" fill="#000000">- centrifuge (int time): void</text><text x="910px" y="1178.00061035156px" font-family="Verdana" font-size="8.639999pt" fill="#000000">- startMotorJob (): void</text><text x="910px" y="1195.00061035156px" font-family="Verdana" font-size="8.639999pt" fill="#000000">- readResponse (): void</text><text x="910px" y="1212.00061035156px" font-family="Verdana" font-size="8.639999pt" fill="#000000">- uartTask (char * command): void</text><text x="910px" y="1229.00061035156px" font-family="Verdana" font-size="8.639999pt" fill="#000000">+ MotorController (WashingMachineController * </text><text x="910px" y="1243.00061035156px" font-family="Verdana" font-size="8.639999pt" fill="#000000">wascontroller)</text><text x="910px" y="1260.00061035156px" font-family="Verdana" font-size="8.639999pt" fill="#000000">+ setUartPointer (UART *u): void</text><text x="910px" y="1277.00061035156px" font-family="Verdana" font-size="8.639999pt" fill="#000000">+ getMotorSpeed (): int</text><text x="910px" y="1294.00061035156px" font-family="Verdana" font-size="8.639999pt" fill="#000000">+ setMotorJob (int job, int time): void</text><text x="910px" y="1311.00061035156px" font-family="Verdana" font-size="8.639999pt" fill="#000000">+ setResponseFlag (): void</text><text x="910px" y="1328.00061035156px" font-family="Verdana" font-size="8.639999pt" fill="#000000">+ writeResponse (char * response): void</text><text x="910px" y="1345.00061035156px" font-family="Verdana" font-size="8.639999pt" fill="#000000">+ main (): void</text></g></g><g transform="matrix(1 0 0 1 0 0)" /><g transform="matrix(1 0 0 1 0 0)"><g clip-path="url(#cp4)"><rect x="916px" y="398px" width="312px" height="422px" fill="rgba(0,0,0,0.196)" /></g><g clip-path="url(#cp5)"><path fill="none" d="M 916.5 399.5 L 1226.5 399.5  1226.5 819.5  916.5 819.5 z " stroke="rgba(0,0,0,0.051)" stroke-width="8px" stroke-dashoffset="0" stroke-linejoin="round" stroke-miterlimit="10" /><path fill="none" d="M 916.5 399.5 L 1226.5 399.5  1226.5 819.5  916.5 819.5 z " stroke="rgba(0,0,0,0.051)" stroke-width="6px" stroke-dashoffset="0" stroke-linejoin="round" stroke-miterlimit="10" /><path fill="none" d="M 916.5 399.5 L 1226.5 399.5  1226.5 819.5  916.5 819.5 z " stroke="rgba(0,0,0,0.051)" stroke-width="4px" stroke-dashoffset="0" stroke-linejoin="round" stroke-miterlimit="10" /><path fill="none" d="M 916.5 399.5 L 1226.5 399.5  1226.5 819.5  916.5 819.5 z " stroke="rgba(0,0,0,0.051)" stroke-width="2px" stroke-dashoffset="0" stroke-linejoin="round" stroke-miterlimit="10" /></g><rect x="916px" y="399px" width="310px" height="420px" fill="url(#fs3)" /><path d="M 1225.5 538.5 C 1070.5 538.5  915.5 538.5  915.5 643.5 L 915.5 398.5  1225.5 398.5  1225.5 538.5 z " fill="url(#fs4)" /><rect x="916px" y="399px" width="310px" height="420px" fill="none" stroke="#000000" stroke-width="1px" stroke-dashoffset="0" stroke-linejoin="round" stroke-miterlimit="10" /><g clip-path="url(#cp6)"><text x="1011px" y="415.556243896484px" font-family="Verdana" font-size="9.599999pt" font-weight="bold" fill="#000000">WaterController</text><line x1="916px" y1="422px" x2="1226px" y2="422px" stroke="#000000" stroke-width="1px" stroke-dashoffset="0" stroke-linejoin="round" stroke-miterlimit="10" /><text x="918px" y="442.000610351563px" font-family="Verdana" font-size="8.639999pt" fill="#000000">- watersensor: WaterSensor</text><text x="918px" y="459.000610351563px" font-family="Verdana" font-size="8.639999pt" fill="#000000">- pumpPump</text><text x="918px" y="476.000610351563px" font-family="Verdana" font-size="8.639999pt" fill="#000000">- valve: Valve</text><text x="918px" y="493.000610351563px" font-family="Verdana" font-size="8.639999pt" fill="#000000">- UART: *uartptr</text><text x="918px" y="510.000610351563px" font-family="Verdana" font-size="8.639999pt" fill="#000000">- WashingMachineController: *wascontroller</text><text x="918px" y="527.000610351563px" font-family="Verdana" font-size="8.639999pt" fill="#000000">- response_flag: RTOS::flag</text><text x="918px" y="544.000610351563px" font-family="Verdana" font-size="8.639999pt" fill="#000000">- water_level_pool: RTOS::pool&lt; int &gt;</text><text x="918px" y="561.000610351563px" font-family="Verdana" font-size="8.639999pt" fill="#000000">- response_pool: RTOS::pool&lt; char * &gt;</text><text x="918px" y="578.000610351563px" font-family="Verdana" font-size="8.639999pt" fill="#000000">- response_mutex: RTOS::mutex</text><text x="918px" y="595.000610351563px" font-family="Verdana" font-size="8.639999pt" fill="#000000">- water_level_mutex: RTOS::mutex</text><line x1="916px" y1="602px" x2="1226px" y2="602px" stroke="#000000" stroke-width="1px" stroke-dashoffset="0" stroke-linejoin="round" stroke-miterlimit="10" /><text x="918px" y="619.000610351563px" font-family="Verdana" font-size="8.639999pt" fill="#000000">- getNewWaterLevel (): int</text><text x="918px" y="636.000610351563px" font-family="Verdana" font-size="8.639999pt" fill="#000000">- pumping (bool on): void</text><text x="918px" y="653.000610351563px" font-family="Verdana" font-size="8.639999pt" fill="#000000">- valving (bool on): void</text><text x="918px" y="670.000610351563px" font-family="Verdana" font-size="8.639999pt" fill="#000000">- readResponse (): Char *</text><text x="918px" y="687.000610351563px" font-family="Verdana" font-size="8.639999pt" fill="#000000">- uartTask (char * command): Char *</text><text x="918px" y="704.000610351563px" font-family="Verdana" font-size="8.639999pt" fill="#000000">+ WaterController (WashingMachineController * </text><text x="918px" y="718.000610351563px" font-family="Verdana" font-size="8.639999pt" fill="#000000">wascontroller)</text><text x="918px" y="735.000610351563px" font-family="Verdana" font-size="8.639999pt" fill="#000000">+ setUartPointer (UART * u): void</text><text x="918px" y="752.000610351563px" font-family="Verdana" font-size="8.639999pt" fill="#000000">+ setWaterLevel (int level): void</text><text x="918px" y="769.000610351563px" font-family="Verdana" font-size="8.639999pt" fill="#000000">+ setResponseFlag (): void</text><text x="918px" y="786.000610351563px" font-family="Verdana" font-size="8.639999pt" fill="#000000">+ writeResponse (char * response): void</text><text x="918px" y="803.000610351563px" font-family="Verdana" font-size="8.639999pt" fill="#000000">+ main (): void</text></g></g><g transform="matrix(1 0 0 1 0 0)" /><g transform="matrix(1 0 0 1 0 0)"><g clip-path="url(#cp7)"><rect x="907px" y="4px" width="330px" height="357px" fill="rgba(0,0,0,0.196)" /></g><g clip-path="url(#cp8)"><path fill="none" d="M 908 5 L 1236 5  1236 360  908 360 z " stroke="rgba(0,0,0,0.051)" stroke-width="8px" stroke-dashoffset="0" stroke-linejoin="round" stroke-miterlimit="10" /><path fill="none" d="M 908 5 L 1236 5  1236 360  908 360 z " stroke="rgba(0,0,0,0.051)" stroke-width="6px" stroke-dashoffset="0" stroke-linejoin="round" stroke-miterlimit="10" /><path fill="none" d="M 908 5 L 1236 5  1236 360  908 360 z " stroke="rgba(0,0,0,0.051)" stroke-width="4px" stroke-dashoffset="0" stroke-linejoin="round" stroke-miterlimit="10" /><path fill="none" d="M 908 5 L 1236 5  1236 360  908 360 z " stroke="rgba(0,0,0,0.051)" stroke-width="2px" stroke-dashoffset="0" stroke-linejoin="round" stroke-miterlimit="10" /></g><rect x="907px" y="4px" width="328px" height="355px" fill="url(#fs5)" /><path d="M 1235 122.3333 C 1071 122.3333  907 122.3333  907 211.0833 L 907 4  1235 4  1235 122.3333 z " fill="url(#fs6)" /><rect x="907px" y="4px" width="328px" height="355px" fill="none" stroke="#000000" stroke-width="1px" stroke-dashoffset="0" stroke-linejoin="round" stroke-miterlimit="10" /><g clip-path="url(#cp9)"><text x="1014px" y="21.5562477111816px" font-family="Verdana" font-size="9.599999pt" font-weight="bold" fill="#000000">TempController</text><line x1="907px" y1="28px" x2="1235px" y2="28px" stroke="#000000" stroke-width="1px" stroke-dashoffset="0" stroke-linejoin="round" stroke-miterlimit="10" /><text x="910px" y="48.0006217956543px" font-family="Verdana" font-size="8.639999pt" fill="#000000">- Heater heater</text><text x="910px" y="65.0006256103516px" font-family="Verdana" font-size="8.639999pt" fill="#000000">- TempSensor tempsensor</text><text x="910px" y="82.0006256103516px" font-family="Verdana" font-size="8.639999pt" fill="#000000">- UART *uartptr</text><text x="910px" y="99.0006256103516px" font-family="Verdana" font-size="8.639999pt" fill="#000000">- WashingMachineController *wascontroller</text><text x="910px" y="116.000625610352px" font-family="Verdana" font-size="8.639999pt" fill="#000000">- RTOS: :flag response_flag</text><text x="910px" y="133.000625610352px" font-family="Verdana" font-size="8.639999pt" fill="#000000">- RTOS: :pool&lt;int&gt; temp_pool</text><text x="910px" y="150.000625610352px" font-family="Verdana" font-size="8.639999pt" fill="#000000">- RTOS: :pool&lt;char&gt; response_pool</text><text x="910px" y="167.000625610352px" font-family="Verdana" font-size="8.639999pt" fill="#000000">- RTOS: :mutex temp_mutex</text><text x="910px" y="184.000625610352px" font-family="Verdana" font-size="8.639999pt" fill="#000000">- RTOS: :mutex response_mutex</text><text x="910px" y="201.000625610352px" font-family="Verdana" font-size="8.639999pt" fill="#000000">- RTOS: :clock interval_clock</text><line x1="907px" y1="208px" x2="1235px" y2="208px" stroke="#000000" stroke-width="1px" stroke-dashoffset="0" stroke-linejoin="round" stroke-miterlimit="10" /><text x="910px" y="225.000625610352px" font-family="Verdana" font-size="8.639999pt" fill="#000000">+ getNewTemp (): int</text><text x="910px" y="242.000625610352px" font-family="Verdana" font-size="8.639999pt" fill="#000000">+ getTemp (): int</text><text x="910px" y="259.000610351563px" font-family="Verdana" font-size="8.639999pt" fill="#000000">+ heat (on bool): void</text><text x="910px" y="276.000610351563px" font-family="Verdana" font-size="8.639999pt" fill="#000000">+ updateState (): void</text><text x="910px" y="293.000610351563px" font-family="Verdana" font-size="8.639999pt" fill="#000000">+ setUartPointer (UART * u): void</text><text x="910px" y="310.000610351563px" font-family="Verdana" font-size="8.639999pt" fill="#000000">+ setTemp (temp int): void</text><text x="910px" y="327.000610351563px" font-family="Verdana" font-size="8.639999pt" fill="#000000">+ setResponseFlag (): void</text><text x="910px" y="344.000610351563px" font-family="Verdana" font-size="8.639999pt" fill="#000000">+ main (): void</text></g></g><g transform="matrix(1 0 0 1 0 0)" /><g transform="matrix(1 0 0 1 0 0)"><g clip-path="url(#cp10)"><rect x="624px" y="24px" width="213px" height="118px" fill="rgba(0,0,0,0.196)" /></g><g clip-path="url(#cp11)"><path fill="none" d="M 625 25 L 836 25  836 141  625 141 z " stroke="rgba(0,0,0,0.051)" stroke-width="8px" stroke-dashoffset="0" stroke-linejoin="round" stroke-miterlimit="10" /><path fill="none" d="M 625 25 L 836 25  836 141  625 141 z " stroke="rgba(0,0,0,0.051)" stroke-width="6px" stroke-dashoffset="0" stroke-linejoin="round" stroke-miterlimit="10" /><path fill="none" d="M 625 25 L 836 25  836 141  625 141 z " stroke="rgba(0,0,0,0.051)" stroke-width="4px" stroke-dashoffset="0" stroke-linejoin="round" stroke-miterlimit="10" /><path fill="none" d="M 625 25 L 836 25  836 141  625 141 z " stroke="rgba(0,0,0,0.051)" stroke-width="2px" stroke-dashoffset="0" stroke-linejoin="round" stroke-miterlimit="10" /></g><rect x="624px" y="24px" width="211px" height="116px" fill="url(#fs7)" /><path d="M 835 62.66667 C 729.5 62.66667  624 62.66667  624 91.66667 L 624 24  835 24  835 62.66667 z " fill="url(#fs8)" /><rect x="624px" y="24px" width="211px" height="116px" fill="none" stroke="#000000" stroke-width="1px" stroke-dashoffset="0" stroke-linejoin="round" stroke-miterlimit="10" /><g clip-path="url(#cp12)"><text x="693px" y="40.0006217956543px" font-family="Verdana" font-size="8.639999pt" font-style="italic" fill="#1E1E1E">«boundary»</text><text x="704px" y="57.5562477111816px" font-family="Verdana" font-size="9.599999pt" font-weight="bold" fill="#000000">Heater</text><line x1="624px" y1="64px" x2="835px" y2="64px" stroke="#000000" stroke-width="1px" stroke-dashoffset="0" stroke-linejoin="round" stroke-miterlimit="10" /><line x1="624px" y1="74px" x2="835px" y2="74px" stroke="#000000" stroke-width="1px" stroke-dashoffset="0" stroke-linejoin="round" stroke-miterlimit="10" /><text x="627px" y="91.0006256103516px" font-family="Verdana" font-size="8.639999pt" fill="#000000">+ getOnCommand (): Char *</text><text x="627px" y="108.000625610352px" font-family="Verdana" font-size="8.639999pt" fill="#000000">+ getOffCommand (): Char *</text><text x="627px" y="125.000625610352px" font-family="Verdana" font-size="8.639999pt" fill="#000000">+ getStatusCommand (): Char *</text></g></g><g transform="matrix(1 0 0 1 0 0)" /><g transform="matrix(1 0 0 1 0 0)"><g clip-path="url(#cp13)"><rect x="586px" y="577px" width="211px" height="135px" fill="rgba(0,0,0,0.196)" /></g><g clip-path="url(#cp14)"><path fill="none" d="M 587.5 577.75 L 796.5 577.75  796.5 710.75  587.5 710.75 z " stroke="rgba(0,0,0,0.051)" stroke-width="8px" stroke-dashoffset="0" stroke-linejoin="round" stroke-miterlimit="10" /><path fill="none" d="M 587.5 577.75 L 796.5 577.75  796.5 710.75  587.5 710.75 z " stroke="rgba(0,0,0,0.051)" stroke-width="6px" stroke-dashoffset="0" stroke-linejoin="round" stroke-miterlimit="10" /><path fill="none" d="M 587.5 577.75 L 796.5 577.75  796.5 710.75  587.5 710.75 z " stroke="rgba(0,0,0,0.051)" stroke-width="4px" stroke-dashoffset="0" stroke-linejoin="round" stroke-miterlimit="10" /><path fill="none" d="M 587.5 577.75 L 796.5 577.75  796.5 710.75  587.5 710.75 z " stroke="rgba(0,0,0,0.051)" stroke-width="2px" stroke-dashoffset="0" stroke-linejoin="round" stroke-miterlimit="10" /></g><rect x="586px" y="577px" width="209px" height="133px" fill="url(#fs9)" /><path d="M 795.5 621.0833 C 691 621.0833  586.5 621.0833  586.5 654.3333 L 586.5 576.75  795.5 576.75  795.5 621.0833 z " fill="url(#fs10)" /><rect x="586px" y="577px" width="209px" height="133px" fill="none" stroke="#000000" stroke-width="1px" stroke-dashoffset="0" stroke-linejoin="round" stroke-miterlimit="10" /><g clip-path="url(#cp15)"><text x="655px" y="593.000610351563px" font-family="Verdana" font-size="8.639999pt" font-style="italic" fill="#1E1E1E">«boundary»</text><text x="671px" y="610.556274414063px" font-family="Verdana" font-size="9.599999pt" font-weight="bold" fill="#000000">Pump</text><line x1="586px" y1="617px" x2="796px" y2="617px" stroke="#000000" stroke-width="1px" stroke-dashoffset="0" stroke-linejoin="round" stroke-miterlimit="10" /><line x1="586px" y1="627px" x2="796px" y2="627px" stroke="#000000" stroke-width="1px" stroke-dashoffset="0" stroke-linejoin="round" stroke-miterlimit="10" /><text x="590px" y="644.000610351563px" font-family="Verdana" font-size="8.639999pt" fill="#000000">+ Pump (): ()</text><text x="590px" y="661.000610351563px" font-family="Verdana" font-size="8.639999pt" fill="#000000">+ getOnCommand (): char *</text><text x="590px" y="678.000610351563px" font-family="Verdana" font-size="8.639999pt" fill="#000000">+ getOffCommand (): char *</text><text x="590px" y="695.000610351563px" font-family="Verdana" font-size="8.639999pt" fill="#000000">+ getStatusCommand (): char *</text></g></g><g transform="matrix(1 0 0 1 0 0)" /><g transform="matrix(1 0 0 1 0 0)"><g clip-path="url(#cp16)"><rect x="599px" y="1012px" width="247px" height="118px" fill="rgba(0,0,0,0.196)" /></g><g clip-path="url(#cp17)"><path fill="none" d="M 600 1012.75 L 845 1012.75  845 1128.75  600 1128.75 z " stroke="rgba(0,0,0,0.051)" stroke-width="8px" stroke-dashoffset="0" stroke-linejoin="round" stroke-miterlimit="10" /><path fill="none" d="M 600 1012.75 L 845 1012.75  845 1128.75  600 1128.75 z " stroke="rgba(0,0,0,0.051)" stroke-width="6px" stroke-dashoffset="0" stroke-linejoin="round" stroke-miterlimit="10" /><path fill="none" d="M 600 1012.75 L 845 1012.75  845 1128.75  600 1128.75 z " stroke="rgba(0,0,0,0.051)" stroke-width="4px" stroke-dashoffset="0" stroke-linejoin="round" stroke-miterlimit="10" /><path fill="none" d="M 600 1012.75 L 845 1012.75  845 1128.75  600 1128.75 z " stroke="rgba(0,0,0,0.051)" stroke-width="2px" stroke-dashoffset="0" stroke-linejoin="round" stroke-miterlimit="10" /></g><rect x="599px" y="1012px" width="245px" height="116px" fill="url(#fs11)" /><path d="M 844 1050.417 C 721.5 1050.417  599 1050.417  599 1079.417 L 599 1011.75  844 1011.75  844 1050.417 z " fill="url(#fs12)" /><rect x="599px" y="1012px" width="245px" height="116px" fill="none" stroke="#000000" stroke-width="1px" stroke-dashoffset="0" stroke-linejoin="round" stroke-miterlimit="10" /><g clip-path="url(#cp18)"><text x="685px" y="1028.00061035156px" font-family="Verdana" font-size="8.639999pt" font-style="italic" fill="#1E1E1E">«boundary»</text><text x="700px" y="1045.55627441406px" font-family="Verdana" font-size="9.599999pt" font-weight="bold" fill="#000000">Motor</text><line x1="599px" y1="1052px" x2="844px" y2="1052px" stroke="#000000" stroke-width="1px" stroke-dashoffset="0" stroke-linejoin="round" stroke-miterlimit="10" /><line x1="599px" y1="1062px" x2="844px" y2="1062px" stroke="#000000" stroke-width="1px" stroke-dashoffset="0" stroke-linejoin="round" stroke-miterlimit="10" /><text x="602px" y="1079.00061035156px" font-family="Verdana" font-size="8.639999pt" fill="#000000">+ Motor ()</text><text x="602px" y="1096.00061035156px" font-family="Verdana" font-size="8.639999pt" fill="#000000">+ getMotorSpeedCommand (): Char *</text><text x="602px" y="1113.00061035156px" font-family="Verdana" font-size="8.639999pt" fill="#000000">+ NewOperation3 ()</text></g></g><g transform="matrix(1 0 0 1 0 0)" /><g transform="matrix(1 0 0 1 0 0)"><g clip-path="url(#cp19)"><rect x="624px" y="180px" width="188px" height="84px" fill="rgba(0,0,0,0.196)" /></g><g clip-path="url(#cp20)"><path fill="none" d="M 625 181.5 L 811 181.5  811 263.5  625 263.5 z " stroke="rgba(0,0,0,0.051)" stroke-width="8px" stroke-dashoffset="0" stroke-linejoin="round" stroke-miterlimit="10" /><path fill="none" d="M 625 181.5 L 811 181.5  811 263.5  625 263.5 z " stroke="rgba(0,0,0,0.051)" stroke-width="6px" stroke-dashoffset="0" stroke-linejoin="round" stroke-miterlimit="10" /><path fill="none" d="M 625 181.5 L 811 181.5  811 263.5  625 263.5 z " stroke="rgba(0,0,0,0.051)" stroke-width="4px" stroke-dashoffset="0" stroke-linejoin="round" stroke-miterlimit="10" /><path fill="none" d="M 625 181.5 L 811 181.5  811 263.5  625 263.5 z " stroke="rgba(0,0,0,0.051)" stroke-width="2px" stroke-dashoffset="0" stroke-linejoin="round" stroke-miterlimit="10" /></g><rect x="624px" y="181px" width="186px" height="82px" fill="url(#fs13)" /><path d="M 810 207.8333 C 717 207.8333  624 207.8333  624 228.3333 L 624 180.5  810 180.5  810 207.8333 z " fill="url(#fs14)" /><rect x="624px" y="181px" width="186px" height="82px" fill="none" stroke="#000000" stroke-width="1px" stroke-dashoffset="0" stroke-linejoin="round" stroke-miterlimit="10" /><g clip-path="url(#cp21)"><text x="681px" y="196.000625610352px" font-family="Verdana" font-size="8.639999pt" font-style="italic" fill="#1E1E1E">«boundary»</text><text x="671px" y="214.556243896484px" font-family="Verdana" font-size="9.599999pt" font-weight="bold" fill="#000000">TempSensor</text><line x1="624px" y1="220px" x2="810px" y2="220px" stroke="#000000" stroke-width="1px" stroke-dashoffset="0" stroke-linejoin="round" stroke-miterlimit="10" /><text x="627px" y="240.000625610352px" font-family="Verdana" font-size="8.639999pt" fill="#000000">+ getTempCommand(): void</text><line x1="624px" y1="247px" x2="810px" y2="247px" stroke="#000000" stroke-width="1px" stroke-dashoffset="0" stroke-linejoin="round" stroke-miterlimit="10" /></g></g><g transform="matrix(1 0 0 1 0 0)" /><g transform="matrix(1 0 0 1 0 0)"><g clip-path="url(#cp22)"><rect x="624px" y="436px" width="247px" height="106px" fill="rgba(0,0,0,0.196)" /></g><g clip-path="url(#cp23)"><path fill="none" d="M 625 437.5 L 870 437.5  870 541.5  625 541.5 z " stroke="rgba(0,0,0,0.051)" stroke-width="8px" stroke-dashoffset="0" stroke-linejoin="round" stroke-miterlimit="10" /><path fill="none" d="M 625 437.5 L 870 437.5  870 541.5  625 541.5 z " stroke="rgba(0,0,0,0.051)" stroke-width="6px" stroke-dashoffset="0" stroke-linejoin="round" stroke-miterlimit="10" /><path fill="none" d="M 625 437.5 L 870 437.5  870 541.5  625 541.5 z " stroke="rgba(0,0,0,0.051)" stroke-width="4px" stroke-dashoffset="0" stroke-linejoin="round" stroke-miterlimit="10" /><path fill="none" d="M 625 437.5 L 870 437.5  870 541.5  625 541.5 z " stroke="rgba(0,0,0,0.051)" stroke-width="2px" stroke-dashoffset="0" stroke-linejoin="round" stroke-miterlimit="10" /></g><rect x="624px" y="437px" width="245px" height="104px" fill="url(#fs15)" /><path d="M 869 471.1667 C 746.5 471.1667  624 471.1667  624 497.1667 L 624 436.5  869 436.5  869 471.1667 z " fill="url(#fs16)" /><rect x="624px" y="437px" width="245px" height="104px" fill="none" stroke="#000000" stroke-width="1px" stroke-dashoffset="0" stroke-linejoin="round" stroke-miterlimit="10" /><g clip-path="url(#cp24)"><text x="710px" y="452.000610351563px" font-family="Verdana" font-size="8.639999pt" font-style="italic" fill="#1E1E1E">«boundary»</text><text x="697px" y="470.556243896484px" font-family="Verdana" font-size="9.599999pt" font-weight="bold" fill="#000000">Water sensor</text><line x1="624px" y1="476px" x2="869px" y2="476px" stroke="#000000" stroke-width="1px" stroke-dashoffset="0" stroke-linejoin="round" stroke-miterlimit="10" /><line x1="624px" y1="486px" x2="869px" y2="486px" stroke="#000000" stroke-width="1px" stroke-dashoffset="0" stroke-linejoin="round" stroke-miterlimit="10" /><text x="627px" y="503.000610351563px" font-family="Verdana" font-size="8.639999pt" fill="#000000">+ getWaterLevelCommand (): Char*</text><text x="627px" y="520.000610351563px" font-family="Verdana" font-size="8.639999pt" fill="#000000">+ WaterSensor ()</text></g></g><g transform="matrix(1 0 0 1 0 0)" /><g transform="matrix(1 0 0 1 0 0)"><g clip-path="url(#cp25)"><rect x="4px" y="419px" width="341px" height="366px" fill="rgba(0,0,0,0.196)" /></g><g clip-path="url(#cp26)"><path fill="none" d="M 5 420 L 344 420  344 784  5 784 z " stroke="rgba(0,0,0,0.051)" stroke-width="8px" stroke-dashoffset="0" stroke-linejoin="round" stroke-miterlimit="10" /><path fill="none" d="M 5 420 L 344 420  344 784  5 784 z " stroke="rgba(0,0,0,0.051)" stroke-width="6px" stroke-dashoffset="0" stroke-linejoin="round" stroke-miterlimit="10" /><path fill="none" d="M 5 420 L 344 420  344 784  5 784 z " stroke="rgba(0,0,0,0.051)" stroke-width="4px" stroke-dashoffset="0" stroke-linejoin="round" stroke-miterlimit="10" /><path fill="none" d="M 5 420 L 344 420  344 784  5 784 z " stroke="rgba(0,0,0,0.051)" stroke-width="2px" stroke-dashoffset="0" stroke-linejoin="round" stroke-miterlimit="10" /></g><rect x="4px" y="419px" width="339px" height="364px" fill="url(#fs17)" /><path d="M 343 540.3333 C 173.5 540.3333  4 540.3333  4 631.3333 L 4 419  343 419  343 540.3333 z " fill="url(#fs18)" /><rect x="4px" y="419px" width="339px" height="364px" fill="none" stroke="#000000" stroke-width="1px" stroke-dashoffset="0" stroke-linejoin="round" stroke-miterlimit="10" /><g clip-path="url(#cp27)"><text x="117px" y="436.556243896484px" font-family="Verdana" font-size="9.599999pt" font-weight="bold" fill="#000000">UARTController</text><line x1="4px" y1="443px" x2="343px" y2="443px" stroke="#000000" stroke-width="1px" stroke-dashoffset="0" stroke-linejoin="round" stroke-miterlimit="10" /><text x="7px" y="463.000610351563px" font-family="Verdana" font-size="8.639999pt" fill="#000000">- motorctrl: MotorController</text><text x="7px" y="480.000610351563px" font-family="Verdana" font-size="8.639999pt" fill="#000000">- tempctrl: TempController</text><text x="7px" y="497.000610351563px" font-family="Verdana" font-size="8.639999pt" fill="#000000">- waterctrl: WaterController</text><text x="7px" y="514.000610351563px" font-family="Verdana" font-size="8.639999pt" fill="#000000">- wasctrl: WashingMachineController</text><text x="7px" y="531.000610351563px" font-family="Verdana" font-size="8.639999pt" fill="#000000">- device: const char *</text><text x="7px" y="548.000610351563px" font-family="Verdana" font-size="8.639999pt" fill="#000000">- baudrate; unsigned int</text><text x="7px" y="565.000610351563px" font-family="Verdana" font-size="8.639999pt" fill="#000000">- theSerialPort: LibSerial</text><text x="7px" y="582.000610351563px" font-family="Verdana" font-size="8.639999pt" fill="#000000">- commandchannel: RTOS::channel&lt; char *, 100 &gt;</text><text x="7px" y="599.000610351563px" font-family="Verdana" font-size="8.639999pt" fill="#000000">- interval_clock; RTOS: :clock</text><line x1="4px" y1="606px" x2="343px" y2="606px" stroke="#000000" stroke-width="1px" stroke-dashoffset="0" stroke-linejoin="round" stroke-miterlimit="10" /><text x="7px" y="623.000610351563px" font-family="Verdana" font-size="8.639999pt" fill="#000000">- readChannel (): void</text><text x="7px" y="640.000610351563px" font-family="Verdana" font-size="8.639999pt" fill="#000000">- returnResponse (response char *): void</text><text x="7px" y="658.000610351563px" font-family="Verdana" font-size="8.639999pt" fill="#000000">+ UART (const char * device, unsigned int baudrate, </text><text x="7px" y="672.000610351563px" font-family="Verdana" font-size="8.639999pt" fill="#000000">MotorController * motorctrl, TempController * tempctrl, </text><text x="7px" y="686.000610351563px" font-family="Verdana" font-size="8.639999pt" fill="#000000">WaterController * waterctrl, WashingMachineController </text><text x="7px" y="700.000610351563px" font-family="Verdana" font-size="8.639999pt" fill="#000000">* wasctrl)</text><text x="7px" y="717.000610351563px" font-family="Verdana" font-size="8.639999pt" fill="#000000">+ executeCommand (char * s): void</text><text x="7px" y="734.000610351563px" font-family="Verdana" font-size="8.639999pt" fill="#000000">+ writeChannel (char * request): void</text><text x="7px" y="751.000610351563px" font-family="Verdana" font-size="8.639999pt" fill="#000000">+ main (): void</text></g></g><g transform="matrix(1 0 0 1 0 0)" /><g transform="matrix(1 0 0 1 0 0)"><g clip-path="url(#cp28)"><rect x="599px" y="746px" width="213px" height="135px" fill="rgba(0,0,0,0.196)" /></g><g clip-path="url(#cp29)"><path fill="none" d="M 600 747 L 811 747  811 880  600 880 z " stroke="rgba(0,0,0,0.051)" stroke-width="8px" stroke-dashoffset="0" stroke-linejoin="round" stroke-miterlimit="10" /><path fill="none" d="M 600 747 L 811 747  811 880  600 880 z " stroke="rgba(0,0,0,0.051)" stroke-width="6px" stroke-dashoffset="0" stroke-linejoin="round" stroke-miterlimit="10" /><path fill="none" d="M 600 747 L 811 747  811 880  600 880 z " stroke="rgba(0,0,0,0.051)" stroke-width="4px" stroke-dashoffset="0" stroke-linejoin="round" stroke-miterlimit="10" /><path fill="none" d="M 600 747 L 811 747  811 880  600 880 z " stroke="rgba(0,0,0,0.051)" stroke-width="2px" stroke-dashoffset="0" stroke-linejoin="round" stroke-miterlimit="10" /></g><rect x="599px" y="746px" width="211px" height="133px" fill="url(#fs19)" /><path d="M 810 790.3333 C 704.5 790.3333  599 790.3333  599 823.5833 L 599 746  810 746  810 790.3333 z " fill="url(#fs20)" /><rect x="599px" y="746px" width="211px" height="133px" fill="none" stroke="#000000" stroke-width="1px" stroke-dashoffset="0" stroke-linejoin="round" stroke-miterlimit="10" /><g clip-path="url(#cp30)"><text x="668px" y="762.000610351563px" font-family="Verdana" font-size="8.639999pt" font-style="italic" fill="#1E1E1E">«boundary»</text><text x="685px" y="779.556274414063px" font-family="Verdana" font-size="9.599999pt" font-weight="bold" fill="#000000">Valve</text><line x1="599px" y1="786px" x2="810px" y2="786px" stroke="#000000" stroke-width="1px" stroke-dashoffset="0" stroke-linejoin="round" stroke-miterlimit="10" /><line x1="599px" y1="796px" x2="810px" y2="796px" stroke="#000000" stroke-width="1px" stroke-dashoffset="0" stroke-linejoin="round" stroke-miterlimit="10" /><text x="602px" y="813.000610351563px" font-family="Verdana" font-size="8.639999pt" fill="#000000">+ Valve ()</text><text x="602px" y="830.000610351563px" font-family="Verdana" font-size="8.639999pt" fill="#000000">+ getOnCommand (): Char *</text><text x="602px" y="847.000610351563px" font-family="Verdana" font-size="8.639999pt" fill="#000000">+ getoffCommand (): Char *</text><text x="602px" y="864.000610351563px" font-family="Verdana" font-size="8.639999pt" fill="#000000">+ getStatusCommand (): Char *</text></g></g><g transform="matrix(1 0 0 1 0 0)" /><g transform="matrix(1 0 0 1 0 0)"><polyline points="907,1085 844,1080 " fill="none" stroke="#000000" stroke-width="1px" stroke-dashoffset="0" stroke-linejoin="round" stroke-miterlimit="10" /></g><g transform="matrix(1 0 0 1 0 0)" /><g transform="matrix(1 0 0 1 0 0)"><polyline points="907,200 810,210 " fill="none" stroke="#000000" stroke-width="1px" stroke-dashoffset="0" stroke-linejoin="round" stroke-miterlimit="10" /><polyline points="830,214 810,210 828,202 " fill="none" stroke="#000000" stroke-width="1px" stroke-dashoffset="0" stroke-linejoin="round" stroke-miterlimit="10" /></g><g transform="matrix(1 0 0 1 0 0)" /><g transform="matrix(1 0 0 1 0 0)"><polyline points="343,522 907,258 " fill="none" stroke="#000000" stroke-width="1px" stroke-dashoffset="0" stroke-linejoin="round" stroke-miterlimit="10" /><polyline points="363,520 343,522 358,508 " fill="none" stroke="#000000" stroke-width="1px" stroke-dashoffset="0" stroke-linejoin="round" stroke-miterlimit="10" /><polyline points="887,260 907,258 892,272 " fill="none" stroke="#000000" stroke-width="1px" stroke-dashoffset="0" stroke-linejoin="round" stroke-miterlimit="10" /></g><g transform="matrix(1 0 0 1 0 0)" /><g transform="matrix(1 0 0 1 0 0)"><polyline points="343,603 916,608 " fill="none" stroke="#000000" stroke-width="1px" stroke-dashoffset="0" stroke-linejoin="round" stroke-miterlimit="10" /><polyline points="362,609 343,603 362,597 " fill="none" stroke="#000000" stroke-width="1px" stroke-dashoffset="0" stroke-linejoin="round" stroke-miterlimit="10" /><polyline points="897,602 916,608 897,614 " fill="none" stroke="#000000" stroke-width="1px" stroke-dashoffset="0" stroke-linejoin="round" stroke-miterlimit="10" /></g><g transform="matrix(1 0 0 1 0 0)" /><g transform="matrix(1 0 0 1 0 0)"><polyline points="343,695 907,1008 " fill="none" stroke="#000000" stroke-width="1px" stroke-dashoffset="0" stroke-linejoin="round" stroke-miterlimit="10" /><polyline points="357,710 343,695 363,699 " fill="none" stroke="#000000" stroke-width="1px" stroke-dashoffset="0" stroke-linejoin="round" stroke-miterlimit="10" /><polyline points="893,993 907,1008 887,1004 " fill="none" stroke="#000000" stroke-width="1px" stroke-dashoffset="0" stroke-linejoin="round" stroke-miterlimit="10" /></g><g transform="matrix(1 0 0 1 0 0)" /><g transform="matrix(1 0 0 1 0 0)"><polyline points="907,133 835,112 " fill="none" stroke="#000000" stroke-width="1px" stroke-dashoffset="0" stroke-linejoin="round" stroke-miterlimit="10" /><polyline points="852,123 835,112 855,111 " fill="none" stroke="#000000" stroke-width="1px" stroke-dashoffset="0" stroke-linejoin="round" stroke-miterlimit="10" /></g><g transform="matrix(1 0 0 1 0 0)" /><g transform="matrix(1 0 0 1 0 0)"><polyline points="916,695 810,754 " fill="none" stroke="#000000" stroke-width="1px" stroke-dashoffset="0" stroke-linejoin="round" stroke-miterlimit="10" /><polyline points="830,750 810,754 824,739 " fill="none" stroke="#000000" stroke-width="1px" stroke-dashoffset="0" stroke-linejoin="round" stroke-miterlimit="10" /></g><g transform="matrix(1 0 0 1 0 0)" /><g transform="matrix(1 0 0 1 0 0)"><polyline points="916,623 796,634 " fill="none" stroke="#000000" stroke-width="1px" stroke-dashoffset="0" stroke-linejoin="round" stroke-miterlimit="10" /><polyline points="816,638 796,634 814,626 " fill="none" stroke="#000000" stroke-width="1px" stroke-dashoffset="0" stroke-linejoin="round" stroke-miterlimit="10" /></g><g transform="matrix(1 0 0 1 0 0)" /><g transform="matrix(1 0 0 1 0 0)"><polyline points="916,552 869,535 " fill="none" stroke="#000000" stroke-width="1px" stroke-dashoffset="0" stroke-linejoin="round" stroke-miterlimit="10" /><polyline points="885,547 869,535 889,536 " fill="none" stroke="#000000" stroke-width="1px" stroke-dashoffset="0" stroke-linejoin="round" stroke-miterlimit="10" /></g><g transform="matrix(1 0 0 1 0 0)" /></svg>